<svg width="835" height="299" viewBox="0 0 835 299" fill="none" xmlns="http://www.w3.org/2000/svg">
  <path d="M 88.105 2.374 C 87.145 3.530, 87.164 4.014, 88.195 4.669 C 92.758 7.573, 102.569 20.741, 105.879 28.403 C 106.093 28.900, 104.720 28.125, 102.826 26.681 C 97.532 22.643, 86.693 18.991, 78.019 18.322 C 69.677 17.679, 61 18.559, 61 20.049 C 61 20.558, 62.878 22.160, 65.173 23.609 C 70.245 26.811, 78.701 35.465, 79.605 38.378 C 79.966 39.545, 81.134 41.737, 82.199 43.250 C 83.265 44.763, 83.682 46, 83.127 46 C 82.572 46, 81.894 45.638, 81.620 45.194 C 81.144 44.425, 74.725 41.091, 66.788 37.491 C 64.746 36.566, 62.568 35.977, 61.947 36.184 C 60.552 36.649, 55.340 48.691, 53.843 54.909 C 52.699 59.662, 47.150 66.574, 41.774 69.941 C 38.313 72.109, 27.958 83.764, 22.875 91.213 C 13.746 104.588, 5.271 124.564, 1.962 140.500 C 0.567 147.218, 0.099 175.536, 1.243 184 C 1.652 187.025, 2.685 192.200, 3.538 195.500 C 4.392 198.800, 5.501 203.096, 6.004 205.046 C 7.232 209.810, 12.174 221.527, 15.116 226.653 C 22.384 239.312, 24.306 242.262, 28.785 247.621 C 31.487 250.854, 36.314 255.975, 39.512 259 C 42.709 262.025, 46.265 265.438, 47.413 266.585 C 58.083 277.246, 85.905 290.821, 105 294.683 C 121.786 298.078, 148.524 297.301, 165.780 292.916 C 175.392 290.474, 195.346 282.356, 201 278.587 C 211.734 271.432, 221.460 263.312, 229.410 254.866 C 242.903 240.533, 255.855 217.069, 260.367 198.783 C 264.706 181.198, 265.886 156.416, 263.095 141.477 C 262.500 138.292, 262.851 135.734, 264.613 130.417 C 265.875 126.613, 266.927 123.245, 266.953 122.933 C 266.979 122.621, 264.525 121.585, 261.500 120.632 C 258.196 119.590, 256 118.325, 256 117.464 C 256 115.615, 246.534 97.475, 243.400 93.317 C 242.080 91.566, 241 89.710, 241 89.193 C 241 87.246, 221.423 66.026, 219.610 66.009 C 217.973 65.993, 216.064 62.532, 216.020 59.500 C 215.862 48.617, 204.796 27.263, 196.110 21.078 C 192.200 18.294, 191.648 19.567, 194.037 25.855 C 197.089 33.886, 196.466 33.989, 189.762 26.560 C 182.520 18.536, 175.493 13.718, 163.835 8.781 C 154.026 4.626, 150 3.531, 150 5.017 C 150 5.598, 152.318 9.094, 155.151 12.786 C 159.714 18.733, 163 24.539, 163 26.655 C 163 27.051, 161.762 26.234, 160.250 24.840 C 151.746 17.002, 134.538 8.031, 121.460 4.616 C 113.352 2.498, 112.421 3.815, 118.004 9.504 C 123.312 14.913, 122.701 15.150, 115.433 10.500 C 112.423 8.575, 109.332 7, 108.563 7 C 107.795 7, 105.216 6.172, 102.833 5.160 C 100.450 4.148, 97.150 3.054, 95.500 2.730 C 93.850 2.406, 91.785 1.863, 90.910 1.525 C 90.036 1.186, 88.773 1.568, 88.105 2.374 M 136 26.661 C 136 26.948, 137.723 29.729, 139.829 32.841 C 146.923 43.327, 150.799 49.659, 153.973 55.947 C 159.122 66.146, 158.099 65.642, 141.508 49.813 C 134.625 43.245, 120.308 31, 119.513 31 C 118.648 31, 123.111 42.461, 126.355 48.570 C 128.233 52.106, 129.441 55, 129.040 55 C 128.639 55, 125.740 52.750, 122.597 50 C 115.788 44.041, 114.126 43.647, 117.327 48.750 C 118.621 50.813, 120.848 55.425, 122.275 59 L 124.871 65.500 131.186 66.154 C 138.908 66.955, 150.692 70.843, 161.946 76.306 C 170.660 80.535, 181.309 89.427, 186.120 96.492 C 187.429 98.414, 188.775 99.989, 189.111 99.993 C 189.447 99.997, 191.583 97.121, 193.858 93.603 C 196.134 90.085, 200.878 84.388, 204.402 80.943 C 210.208 75.268, 210.868 74.202, 211.436 69.590 C 212.193 63.438, 210.924 56.232, 207.897 49.500 L 205.649 44.500 204.898 51.343 C 204.485 55.107, 203.916 58.418, 203.632 58.701 C 203.349 58.984, 201.728 56.150, 200.029 52.403 C 196.887 45.473, 194.452 42, 192.737 42 C 192.212 42, 192.071 43.146, 192.422 44.546 C 193.764 49.893, 191.652 48.797, 186.847 41.655 C 184.102 37.575, 180.588 33.022, 179.038 31.537 L 176.220 28.837 178.622 39.668 C 181.255 51.536, 183.016 75, 181.275 75 C 180.709 75, 179.279 72.638, 178.097 69.750 C 172.685 56.532, 166.037 45.900, 159.900 40.646 C 151.059 33.079, 136 24.267, 136 26.661 M 62.002 47.996 C 58.751 54.369, 55.005 69.854, 55.003 76.934 C 54.998 88.332, 58.298 97.200, 65.355 104.750 C 68.883 108.524, 70.030 108.730, 72.478 106.024 C 74.200 104.122, 74.187 103.861, 72.133 99.088 C 70.960 96.361, 70 92.442, 70 90.380 C 70 85.321, 73.292 78.850, 76.971 76.676 C 79.975 74.902, 79.979 74.886, 78.457 71.243 C 77.618 69.234, 75.230 65.320, 73.152 62.545 C 67.437 54.915, 67.272 54.462, 70.980 56.606 C 75.922 59.463, 82.588 66.272, 84.922 70.847 C 87.158 75.230, 87.637 82.291, 86.070 87.757 C 85.558 89.540, 85.350 91, 85.607 91 C 86.924 91, 101 78.346, 101 77.162 C 101 73.532, 94.161 63.409, 87.573 57.287 C 81.158 51.326, 68.877 44, 65.299 44 C 64.607 44, 63.123 45.798, 62.002 47.996 M 43.221 78.750 C 25.285 96.720, 13.849 118.720, 9.510 143.605 C 5.983 163.829, 7.961 186.617, 15.058 207.524 C 24.674 235.850, 48.264 262.532, 76 276.451 C 96.420 286.699, 119.819 291.180, 142 289.090 C 174.323 286.045, 197.604 275.336, 219.846 253.281 C 231.425 241.799, 236.492 235.007, 242.898 222.376 C 252.203 204.032, 255.925 189.273, 256.614 168 L 257.084 153.500 254.587 158 C 252.631 161.526, 252.081 163.974, 252.045 169.308 C 251.857 197.690, 238.605 228.508, 217.547 249.536 C 209.020 258.052, 198.317 266.651, 197.395 265.728 C 197.091 265.424, 196.170 262.229, 195.349 258.628 C 193.626 251.077, 190.861 246.497, 186.078 243.274 C 182.036 240.550, 180.546 240.381, 181.464 242.750 C 184.598 250.834, 186.291 269.420, 184.194 272.720 C 181.855 276.401, 159.021 283.206, 142.637 285.105 C 133.389 286.177, 115.265 285.190, 110.479 283.354 C 109.696 283.053, 108.780 281.163, 108.444 279.153 C 106.757 269.057, 101.702 259.060, 96.360 255.256 C 94.777 254.129, 91.541 252.684, 89.169 252.046 C 85.436 251.040, 83.991 251.173, 78.406 253.031 C 74.857 254.212, 69.664 256.988, 66.866 259.200 C 61.821 263.188, 61.761 263.206, 59.827 261.272 C 57.894 259.338, 57.959 259.213, 67.503 246.522 C 72.797 239.483, 78.525 231.986, 80.231 229.862 C 81.938 227.738, 83.146 225.817, 82.917 225.592 C 81.539 224.243, 70.464 222.200, 69.384 223.096 C 68.715 223.652, 64.249 230.627, 59.460 238.595 C 54.671 246.564, 50.410 252.953, 49.990 252.792 C 48.494 252.219, 35.844 236.679, 30.854 229.284 C 17.824 209.973, 11.030 184.815, 12.301 160.578 C 13.874 130.572, 23.253 108.043, 43.969 84.513 C 48.253 79.646, 51 75.642, 51 74.263 C 51 73.018, 50.766 72, 50.479 72 C 50.193 72, 46.927 75.037, 43.221 78.750 M 443.232 76 C 443.232 77.925, 443.438 78.713, 443.689 77.750 C 443.941 76.787, 443.941 75.213, 443.689 74.250 C 443.438 73.287, 443.232 74.075, 443.232 76 M 216 76.097 C 216 77.272, 218.688 81.116, 222.120 84.847 C 229.477 92.845, 237.080 103.862, 240.358 111.275 C 241.908 114.779, 243.511 116.900, 244.879 117.258 C 248.085 118.097, 247.579 115.761, 242.568 106.601 C 236.532 95.566, 230.450 87.050, 223.538 79.955 C 217.263 73.513, 216 72.866, 216 76.097 M 114.676 84.452 C 109.259 86.383, 109.056 87, 113.833 87 C 116.125 87, 118 87.450, 118 88 C 118 88.550, 117.590 89, 117.090 89 C 115.212 89, 106.375 96.870, 103.121 101.441 L 99.742 106.187 106.613 105.451 C 110.393 105.046, 115.169 103.837, 117.228 102.764 C 124.985 98.721, 132.374 99.471, 140.680 105.145 C 142.979 106.715, 145.679 107.997, 146.680 107.993 C 147.681 107.989, 152.678 108.948, 157.785 110.124 C 162.892 111.301, 167.345 111.989, 167.680 111.654 C 168.758 110.575, 165.033 102.378, 162.339 99.901 L 159.729 97.500 160.945 99.836 C 163.246 104.253, 160.821 103.492, 156.164 98.337 C 153.599 95.497, 149.513 91.779, 147.085 90.076 C 138.272 83.893, 123.454 81.321, 114.676 84.452 M 209 97.500 C 206.272 100.404, 204.522 100.767, 205.387 98.250 C 205.718 97.287, 204.694 97.995, 203.111 99.822 C 200.518 102.816, 196 113.983, 196 117.397 C 196 118.925, 200.794 117.640, 211.125 113.341 C 214.219 112.053, 217.755 111, 218.983 111 C 220.916 111, 221.126 110.629, 220.546 108.250 C 220.176 106.737, 218.803 103.138, 217.493 100.250 C 214.771 94.251, 212.686 93.576, 209 97.500 M 315.750 95.706 C 316.988 95.944, 319.012 95.944, 320.250 95.706 C 321.488 95.467, 320.475 95.272, 318 95.272 C 315.525 95.272, 314.512 95.467, 315.750 95.706 M 105.500 106.952 C 104.400 107.402, 100.575 108.303, 97 108.955 C 86.162 110.931, 55.549 118.111, 54.770 118.859 C 53.393 120.181, 56.054 127.070, 58.311 128.027 C 59.515 128.538, 69.896 129.384, 81.381 129.908 C 92.865 130.432, 102.617 131.230, 103.052 131.681 C 103.487 132.131, 104.317 134.075, 104.896 136 C 105.919 139.400, 105.933 139.371, 105.372 135 C 105.054 132.525, 104.503 130.228, 104.147 129.896 C 103.604 129.389, 67.956 126.967, 61.411 126.992 C 59.488 126.999, 56.239 122.427, 57.366 121.300 C 57.883 120.784, 91.622 112.503, 97.500 111.450 C 99.700 111.055, 102.850 110.005, 104.500 109.117 C 106.150 108.228, 108.625 107.216, 110 106.869 L 112.500 106.237 110 106.186 C 108.625 106.158, 106.600 106.503, 105.500 106.952 M 130 109.034 C 156.679 112.108, 172.381 116.127, 176.079 120.828 C 177.804 123.022, 179.048 123.523, 183.026 123.627 C 185.691 123.697, 189.897 124.057, 192.373 124.429 C 196.251 125.010, 197.023 124.826, 197.949 123.096 C 198.540 121.991, 200.706 120.620, 202.762 120.049 C 208.155 118.552, 230.692 118.798, 243.441 120.495 C 253.826 121.877, 258.572 121.852, 252.368 120.448 C 250.791 120.091, 247.925 119.420, 246 118.956 C 229.264 114.924, 197 116.250, 197 120.970 C 197 121.479, 192.982 121.625, 187.750 121.306 C 179.204 120.786, 178.295 120.524, 175.806 117.871 C 174.325 116.292, 172.868 115, 172.569 115 C 172.270 115, 167.632 113.848, 162.263 112.440 C 149.759 109.161, 133.815 107.010, 123 107.144 C 114.665 107.247, 114.800 107.284, 130 109.034 M 123 119.500 C 123 120.325, 123.675 121, 124.500 121 C 125.325 121, 126 120.325, 126 119.500 C 126 118.675, 125.325 118, 124.500 118 C 123.675 118, 123 118.675, 123 119.500 M 117.239 122.161 C 115.203 124.197, 115.818 126.889, 119.034 130.034 C 122.183 133.111, 124.158 134.101, 122.027 131.533 C 121.357 130.726, 120.285 128.008, 119.643 125.494 C 118.716 121.860, 118.223 121.177, 117.239 122.161 M 148.872 121.205 C 148.802 121.367, 148.643 122.431, 148.518 123.569 C 148.393 124.707, 147.989 127.243, 147.622 129.203 C 146.980 132.625, 147.085 132.793, 150.245 133.386 C 152.055 133.726, 155.222 134.907, 157.282 136.011 L 161.028 138.019 164.206 133.509 C 165.955 131.029, 167.748 129, 168.193 129 C 168.637 129, 169.046 131.363, 169.102 134.250 C 169.198 139.162, 169.257 139.280, 170.012 136.076 C 171.455 129.951, 168.897 126.624, 160.484 123.684 C 156.346 122.238, 149.095 120.690, 148.872 121.205 M 145.232 125 C 145.232 126.925, 145.438 127.713, 145.689 126.750 C 145.941 125.787, 145.941 124.213, 145.689 123.250 C 145.438 122.287, 145.232 123.075, 145.232 125 M 217.843 133.522 C 217.556 138.136, 217.706 138.762, 218.750 137.331 C 220.184 135.365, 220.455 128, 219.093 128 C 218.593 128, 218.031 130.485, 217.843 133.522 M 49.627 138.418 C 42.514 145.868, 38.567 151.764, 41.427 150.666 C 42.382 150.300, 44.075 150, 45.188 150 C 46.333 150, 50.319 147.009, 54.357 143.123 C 58.285 139.340, 62.962 135.504, 64.750 134.597 C 66.537 133.690, 68 132.735, 68 132.474 C 68 132.213, 65.245 132, 61.877 132 L 55.755 132 49.627 138.418 M 86 132.775 C 86 133.329, 87.033 134.043, 88.296 134.360 C 89.559 134.676, 92.372 136.507, 94.546 138.426 L 98.500 141.917 90 141.974 C 78.380 142.052, 77.075 143.214, 85.648 145.849 C 89.417 147.008, 94.075 148.939, 96 150.141 L 99.500 152.327 92.495 153.527 C 85.870 154.662, 75.281 158.615, 76.256 159.589 C 76.504 159.837, 80.035 160.691, 84.103 161.486 C 93.905 163.402, 98.212 164.725, 99.047 166.076 C 99.549 166.889, 101.799 166.855, 107.400 165.952 C 116.349 164.508, 144.103 165.176, 148 166.929 C 150.307 167.966, 150.229 168.010, 147 167.497 C 136.181 165.779, 119.012 165.781, 107.623 167.503 C 97.104 169.093, 95.166 169.710, 90.146 173.067 C 87.041 175.144, 82.338 179.352, 79.696 182.417 L 74.893 187.991 81.791 194.745 C 96.661 209.304, 118.533 217.941, 144.973 219.694 L 153.500 220.260 150.384 216.880 C 147.373 213.614, 144.996 208.409, 145.004 205.101 C 145.006 204.155, 145.776 204.760, 146.885 206.580 C 150.827 213.043, 160.955 219.017, 167.928 218.990 C 172.769 218.972, 180.428 214.460, 185.919 208.391 L 191.251 202.500 190.687 206.260 C 190.376 208.327, 189.128 211.416, 187.911 213.124 L 185.700 216.230 188.100 215.512 C 189.420 215.118, 194.263 212.816, 198.863 210.397 C 203.462 207.979, 207.430 206, 207.680 206 C 207.930 206, 207.829 206.964, 207.455 208.143 C 206.854 210.036, 207.330 209.891, 211.540 206.893 C 217.008 203, 222.524 195.053, 223.548 189.594 C 224.292 185.627, 225.607 185.832, 226.165 190 C 226.661 193.704, 228.421 192.637, 229.038 188.257 C 229.942 181.845, 228.973 180.032, 222.987 176.934 C 217.257 173.969, 217.580 172.962, 223.471 175.424 C 226.419 176.655, 226.805 176.655, 226.332 175.424 C 225.684 173.734, 226.436 173.628, 229.066 175.035 C 231.322 176.243, 231.403 175.978, 229.829 172.523 C 228.559 169.736, 227.658 169.424, 218.250 168.509 L 212 167.901 211.990 172.700 C 211.971 182.010, 205.198 191.937, 197.774 193.536 C 193.150 194.532, 189 196.818, 189 198.371 C 189 199.096, 188.118 200.488, 187.040 201.464 C 184.015 204.201, 179.043 202.796, 174.722 197.983 C 172.755 195.792, 170.389 194, 169.463 194 C 163.294 194, 148.509 181.796, 147.289 175.696 C 146.752 173.010, 146.490 172.873, 143.108 173.505 C 137.238 174.603, 127.936 178.079, 121.293 181.657 C 114.277 185.435, 112.311 185.913, 116 182.942 C 121.823 178.253, 135.078 173.130, 145.117 171.688 C 148.579 171.191, 148.782 171.329, 149.853 174.904 C 151.938 181.862, 162.038 189.891, 171.311 191.962 C 175.283 192.848, 176.724 192.750, 179.573 191.398 C 183.192 189.681, 188 184.691, 188 182.652 C 188 181.105, 184.424 177.542, 180 174.683 C 177.347 172.968, 176.500 171.730, 176.500 169.569 C 176.500 165.423, 178.949 164.261, 184.207 165.912 C 188.904 167.386, 193.718 167.574, 198.759 166.478 C 200.850 166.024, 202.553 166.214, 203.509 167.008 C 205.323 168.513, 205.463 172.539, 203.750 173.952 C 203.063 174.520, 200.209 176.741, 197.409 178.889 C 194.610 181.037, 191.366 184.410, 190.201 186.384 C 188.139 189.878, 188.133 190.001, 189.976 190.987 C 201.223 197.007, 216.174 173.762, 206.720 164.954 C 205.517 163.833, 201.429 161.973, 197.636 160.821 C 187.897 157.863, 172.882 158.578, 164.839 162.383 C 160.840 164.275, 157.810 164.972, 153.904 164.900 C 149.559 164.820, 148.990 164.634, 151 163.948 C 152.691 163.371, 151.721 163.265, 148 163.620 C 141.790 164.211, 122.177 162.472, 117.266 160.894 C 112.318 159.305, 107.592 152.990, 104.619 143.994 C 103.179 139.636, 102 135.379, 102 134.535 C 102 133.335, 100.747 132.997, 96.250 132.986 C 93.088 132.979, 89.487 132.701, 88.250 132.370 C 87.006 132.036, 86 132.217, 86 132.775 M 116.002 138.168 C 116.003 144.286, 118.247 149.440, 122.155 152.303 C 124.270 153.853, 127.996 154.524, 140.499 155.609 C 149.960 156.429, 156.846 156.615, 157.845 156.076 C 160.464 154.664, 164.801 149.755, 162.726 150.551 C 161.777 150.916, 161 150.790, 161 150.271 C 161 148.018, 153.434 139.904, 149.605 138.051 C 145.871 136.243, 144.212 136.092, 134.314 136.658 C 123.974 137.250, 122.963 137.140, 119.605 135.065 L 116 132.837 116.002 138.168 M 177.560 136.618 C 177.198 138.058, 177.096 139.429, 177.331 139.665 C 177.567 139.900, 178.039 138.980, 178.381 137.620 C 178.722 136.259, 179.789 134.941, 180.751 134.689 C 182.131 134.329, 182.048 134.208, 180.358 134.116 C 178.835 134.033, 178.027 134.755, 177.560 136.618 M 192.731 137.080 C 193.085 138.432, 193.538 138.886, 193.788 138.137 C 194.028 137.415, 193.750 136.350, 193.168 135.768 C 192.426 135.026, 192.296 135.417, 192.731 137.080 M 238.175 140.199 C 233.597 141.290, 230.053 142.387, 230.301 142.635 C 230.812 143.146, 250.067 139.266, 250.835 138.498 C 251.819 137.514, 246.350 138.249, 238.175 140.199 M 166.166 144.595 C 164.950 147.098, 164.361 148.895, 164.856 148.589 C 165.987 147.890, 169.311 140.977, 168.774 140.441 C 168.556 140.222, 167.382 142.092, 166.166 144.595 M 173.695 147.513 C 172.781 149.431, 172.239 151, 172.490 151 C 173.175 151, 176.210 144.877, 175.753 144.420 C 175.536 144.203, 174.610 145.594, 173.695 147.513 M 205.750 144.689 C 203.440 145.293, 203.547 146.486, 206.482 152.789 C 209.397 159.050, 211.967 160.416, 222.750 161.436 C 230.014 162.122, 231.502 161.492, 228.500 159 C 226.466 157.312, 226.545 154.888, 228.609 155.680 C 229.834 156.150, 229.641 155.369, 227.796 152.399 C 223.720 145.837, 214.156 142.493, 205.750 144.689 M 46.278 155.250 C 42.582 161.421, 36.505 176.002, 35.546 181 L 34.875 184.500 37.273 180.437 C 42.698 171.248, 48.725 163.122, 54.845 156.750 L 61.328 150 55.375 150 L 49.423 150 46.278 155.250 M 165.924 158.750 L 163.500 161.500 166.250 159.076 C 167.762 157.742, 169 156.505, 169 156.326 C 169 155.541, 168.190 156.180, 165.924 158.750 M 129.250 161.689 C 130.213 161.941, 131.787 161.941, 132.750 161.689 C 133.713 161.438, 132.925 161.232, 131 161.232 C 129.075 161.232, 128.287 161.438, 129.250 161.689 M 139.813 162.683 C 140.534 162.972, 141.397 162.936, 141.729 162.604 C 142.061 162.272, 141.471 162.036, 140.417 162.079 C 139.252 162.127, 139.015 162.364, 139.813 162.683 M 47.651 183.777 C 45.561 184.238, 45.618 184.726, 49.017 195.500 C 50.624 200.592, 51.400 206.260, 51.863 216.297 L 52.500 230.095 55.679 224.297 C 59.396 217.520, 63.444 202.904, 62.569 199.419 C 62.235 198.089, 60.190 195.882, 58.023 194.515 C 55.111 192.676, 53.810 191.010, 53.032 188.117 C 51.933 184.039, 50.759 183.092, 47.651 183.777 M 176 196.465 C 176 196.720, 177.012 197.469, 178.250 198.129 C 180.290 199.216, 180.372 199.172, 179.128 197.664 C 177.850 196.115, 176 195.406, 176 196.465 M 183 198.441 C 183 199.298, 183.450 200, 184 200 C 184.550 200, 185 199.577, 185 199.059 C 185 198.541, 184.550 197.840, 184 197.500 C 183.450 197.160, 183 197.584, 183 198.441 M 138.366 224.706 C 136.642 224.928, 133.421 226.660, 131.207 228.555 C 128.933 230.501, 126.088 232, 124.668 232 C 121.530 232, 116.420 236.191, 115.607 239.430 C 115.271 240.770, 114.108 242.148, 113.024 242.492 C 106.725 244.492, 104.953 254.107, 109.961 259.115 C 112.867 262.021, 113.093 262.071, 122.132 261.788 L 131.342 261.500 131.588 257.111 C 131.723 254.696, 132.433 252.341, 133.167 251.876 C 135.218 250.575, 147.428 250.828, 148.800 252.200 C 149.460 252.860, 150 255.335, 150 257.700 L 150 262 157.250 261.996 C 162.676 261.993, 165.306 261.501, 167.701 260.040 C 178.817 253.263, 174.049 235, 161.165 235 C 159.064 235, 157.721 234.219, 156.440 232.250 C 152.594 226.341, 146.249 223.693, 138.366 224.706 M 136 261 C 136 266.733, 135.889 267, 133.500 267 C 132.125 267, 131 267.409, 131 267.908 C 131 269.183, 139.922 280, 140.974 280 C 141.933 280, 150.981 268.937, 150.993 267.750 C 150.997 267.337, 149.875 267, 148.500 267 C 146.111 267, 146 266.733, 146 261 L 146 255 141 255 L 136 255 136 261" fill="#164E63" fill-rule="evenodd"/>
  <path d="M 136 26.661 C 136 26.948, 137.723 29.729, 139.829 32.841 C 146.923 43.327, 150.799 49.659, 153.973 55.947 C 159.122 66.146, 158.099 65.642, 141.508 49.813 C 134.625 43.245, 120.308 31, 119.513 31 C 118.648 31, 123.111 42.461, 126.355 48.570 C 128.233 52.106, 129.441 55, 129.040 55 C 128.639 55, 125.740 52.750, 122.597 50 C 115.788 44.041, 114.126 43.647, 117.327 48.750 C 118.621 50.813, 120.848 55.425, 122.275 59 L 124.871 65.500 131.186 66.154 C 138.908 66.955, 150.692 70.843, 161.946 76.306 C 170.660 80.535, 181.309 89.427, 186.120 96.492 C 187.429 98.414, 188.775 99.989, 189.111 99.993 C 189.447 99.997, 191.583 97.121, 193.858 93.603 C 196.134 90.085, 200.878 84.388, 204.402 80.943 C 210.208 75.268, 210.868 74.202, 211.436 69.590 C 212.193 63.438, 210.924 56.232, 207.897 49.500 L 205.649 44.500 204.898 51.343 C 204.485 55.107, 203.916 58.418, 203.632 58.701 C 203.349 58.984, 201.728 56.150, 200.029 52.403 C 196.887 45.473, 194.452 42, 192.737 42 C 192.212 42, 192.071 43.146, 192.422 44.546 C 193.764 49.893, 191.652 48.797, 186.847 41.655 C 184.102 37.575, 180.588 33.022, 179.038 31.537 L 176.220 28.837 178.622 39.668 C 181.255 51.536, 183.016 75, 181.275 75 C 180.709 75, 179.279 72.638, 178.097 69.750 C 172.685 56.532, 166.037 45.900, 159.900 40.646 C 151.059 33.079, 136 24.267, 136 26.661 M 62.002 47.996 C 58.751 54.369, 55.005 69.854, 55.003 76.934 C 54.998 88.332, 58.298 97.200, 65.355 104.750 C 68.883 108.524, 70.030 108.730, 72.478 106.024 C 74.200 104.122, 74.187 103.861, 72.133 99.088 C 70.960 96.361, 70 92.442, 70 90.380 C 70 85.321, 73.292 78.850, 76.971 76.676 C 79.975 74.902, 79.979 74.886, 78.457 71.243 C 77.618 69.234, 75.230 65.320, 73.152 62.545 C 67.437 54.915, 67.272 54.462, 70.980 56.606 C 75.922 59.463, 82.588 66.272, 84.922 70.847 C 87.158 75.230, 87.637 82.291, 86.070 87.757 C 85.558 89.540, 85.350 91, 85.607 91 C 86.924 91, 101 78.346, 101 77.162 C 101 73.532, 94.161 63.409, 87.573 57.287 C 81.158 51.326, 68.877 44, 65.299 44 C 64.607 44, 63.123 45.798, 62.002 47.996 M 311.221 82.183 L 311.500 95.500 351.252 95.237 C 395.332 94.946, 396.235 95.056, 399.974 101.190 C 402.619 105.527, 402.623 112.256, 399.984 116.526 C 396.019 122.941, 395.571 123, 351.084 123 L 310.969 123 311.235 151.750 L 311.500 180.500 324 180.500 L 336.500 180.500 336.775 164.750 L 337.051 149 364.775 148.988 C 394.912 148.975, 398.663 148.489, 408.478 143.327 C 423.912 135.210, 431.765 119.724, 429.044 102.772 C 426.787 88.711, 418.648 78.637, 404.713 72.655 L 397.500 69.560 354.221 69.213 L 310.941 68.867 311.221 82.183 M 443.794 70.117 C 443.589 70.732, 443.561 87.945, 443.732 108.367 C 443.902 128.790, 444.032 153.262, 444.021 162.750 L 444 180 456.989 180 L 469.978 180 470.239 137.750 L 470.500 95.500 473.631 95.196 C 475.791 94.985, 477.566 95.605, 479.355 97.196 C 482.016 99.559, 482.589 101.271, 494.685 143 C 501.684 167.145, 505.125 172.779, 516 177.907 C 521.229 180.372, 522.421 180.512, 540.174 180.748 C 550.445 180.884, 559.561 180.722, 560.432 180.388 C 561.856 179.841, 561.991 174.189, 561.758 124.640 L 561.500 69.500 548.500 69.500 L 535.500 69.500 535.239 112.250 L 534.979 155 531.644 155 C 526.357 155, 525.311 153.209, 519.662 134.500 C 518.832 131.750, 516.283 123.425, 513.997 116 C 511.712 108.575, 508.964 99.420, 507.891 95.656 C 504.197 82.694, 497.334 74.724, 486.630 70.961 C 481.862 69.286, 478.364 69, 462.608 69 C 449.910 69, 444.051 69.348, 443.794 70.117 M 576.427 70.330 C 576.146 71.062, 576.048 90.524, 576.208 113.580 C 576.544 161.782, 576.310 160.454, 586.201 170.316 C 596.237 180.322, 596.807 180.453, 632 180.808 C 664.777 181.140, 669.914 180.568, 678 175.686 C 683.182 172.557, 689.205 165.514, 691.703 159.662 C 693.857 154.616, 693.908 153.535, 693.953 111.720 L 694 68.940 681.250 69.220 L 668.500 69.500 668.867 103.738 C 669.296 143.802, 668.983 147.736, 665.031 151.967 L 662.198 155 636.664 155 C 610.165 155, 607.164 154.609, 603.933 150.736 C 602.181 148.638, 602.064 146.056, 602.033 108.750 L 602 69 589.469 69 C 579.963 69, 576.814 69.321, 576.427 70.330 M 708.480 71.242 C 708.170 72.484, 708.048 78.225, 708.208 84 L 708.500 94.500 730.500 95 L 752.500 95.500 752.761 138.280 L 753.022 181.060 765.761 180.780 L 778.500 180.500 778.734 139.500 C 778.863 116.950, 778.975 97.713, 778.984 96.750 C 778.999 95.138, 780.698 95, 800.530 95 L 822.060 95 821.780 82.250 L 821.500 69.500 765.271 69.242 L 709.042 68.983 708.480 71.242 M 43.221 78.750 C 25.285 96.720, 13.849 118.720, 9.510 143.605 C 5.983 163.829, 7.961 186.617, 15.058 207.524 C 24.674 235.850, 48.264 262.532, 76 276.451 C 96.420 286.699, 119.819 291.180, 142 289.090 C 174.323 286.045, 197.604 275.336, 219.846 253.281 C 231.425 241.799, 236.492 235.007, 242.898 222.376 C 252.203 204.032, 255.925 189.273, 256.614 168 L 257.084 153.500 254.587 158 C 252.631 161.526, 252.081 163.974, 252.045 169.308 C 251.857 197.690, 238.605 228.508, 217.547 249.536 C 209.020 258.052, 198.317 266.651, 197.395 265.728 C 197.091 265.424, 196.170 262.229, 195.349 258.628 C 193.626 251.077, 190.861 246.497, 186.078 243.274 C 182.036 240.550, 180.546 240.381, 181.464 242.750 C 184.598 250.834, 186.291 269.420, 184.194 272.720 C 181.855 276.401, 159.021 283.206, 142.637 285.105 C 133.389 286.177, 115.265 285.190, 110.479 283.354 C 109.696 283.053, 108.780 281.163, 108.444 279.153 C 106.757 269.057, 101.702 259.060, 96.360 255.256 C 94.777 254.129, 91.541 252.684, 89.169 252.046 C 85.436 251.040, 83.991 251.173, 78.406 253.031 C 74.857 254.212, 69.664 256.988, 66.866 259.200 C 61.821 263.188, 61.761 263.206, 59.827 261.272 C 57.894 259.338, 57.959 259.213, 67.503 246.522 C 72.797 239.483, 78.525 231.986, 80.231 229.862 C 81.938 227.738, 83.146 225.817, 82.917 225.592 C 81.539 224.243, 70.464 222.200, 69.384 223.096 C 68.715 223.652, 64.249 230.627, 59.460 238.595 C 54.671 246.564, 50.410 252.953, 49.990 252.792 C 48.494 252.219, 35.844 236.679, 30.854 229.284 C 17.824 209.973, 11.030 184.815, 12.301 160.578 C 13.874 130.572, 23.253 108.043, 43.969 84.513 C 48.253 79.646, 51 75.642, 51 74.263 C 51 73.018, 50.766 72, 50.479 72 C 50.193 72, 46.927 75.037, 43.221 78.750 M 216 76.097 C 216 77.272, 218.688 81.116, 222.120 84.847 C 229.477 92.845, 237.080 103.862, 240.358 111.275 C 241.908 114.779, 243.511 116.900, 244.879 117.258 C 248.085 118.097, 247.579 115.761, 242.568 106.601 C 236.532 95.566, 230.450 87.050, 223.538 79.955 C 217.263 73.513, 216 72.866, 216 76.097 M 114.676 84.452 C 109.259 86.383, 109.056 87, 113.833 87 C 116.125 87, 118 87.450, 118 88 C 118 88.550, 117.590 89, 117.090 89 C 115.212 89, 106.375 96.870, 103.121 101.441 L 99.742 106.187 106.613 105.451 C 110.393 105.046, 115.169 103.837, 117.228 102.764 C 124.985 98.721, 132.374 99.471, 140.680 105.145 C 142.979 106.715, 145.679 107.997, 146.680 107.993 C 147.681 107.989, 152.678 108.948, 157.785 110.124 C 162.892 111.301, 167.345 111.989, 167.680 111.654 C 168.758 110.575, 165.033 102.378, 162.339 99.901 L 159.729 97.500 160.945 99.836 C 163.246 104.253, 160.821 103.492, 156.164 98.337 C 153.599 95.497, 149.513 91.779, 147.085 90.076 C 138.272 83.893, 123.454 81.321, 114.676 84.452 M 209 97.500 C 206.272 100.404, 204.522 100.767, 205.387 98.250 C 205.718 97.287, 204.694 97.995, 203.111 99.822 C 200.518 102.816, 196 113.983, 196 117.397 C 196 118.925, 200.794 117.640, 211.125 113.341 C 214.219 112.053, 217.755 111, 218.983 111 C 220.916 111, 221.126 110.629, 220.546 108.250 C 220.176 106.737, 218.803 103.138, 217.493 100.250 C 214.771 94.251, 212.686 93.576, 209 97.500 M 105.500 106.952 C 104.400 107.402, 100.575 108.303, 97 108.955 C 86.162 110.931, 55.549 118.111, 54.770 118.859 C 53.393 120.181, 56.054 127.070, 58.311 128.027 C 59.515 128.538, 69.896 129.384, 81.381 129.908 C 92.865 130.432, 102.617 131.230, 103.052 131.681 C 103.487 132.131, 104.317 134.075, 104.896 136 C 105.919 139.400, 105.933 139.371, 105.372 135 C 105.054 132.525, 104.503 130.228, 104.147 129.896 C 103.604 129.389, 67.956 126.967, 61.411 126.992 C 59.488 126.999, 56.239 122.427, 57.366 121.300 C 57.883 120.784, 91.622 112.503, 97.500 111.450 C 99.700 111.055, 102.850 110.005, 104.500 109.117 C 106.150 108.228, 108.625 107.216, 110 106.869 L 112.500 106.237 110 106.186 C 108.625 106.158, 106.600 106.503, 105.500 106.952 M 130 109.034 C 156.679 112.108, 172.381 116.127, 176.079 120.828 C 177.804 123.022, 179.048 123.523, 183.026 123.627 C 185.691 123.697, 189.897 124.057, 192.373 124.429 C 196.251 125.010, 197.023 124.826, 197.949 123.096 C 198.540 121.991, 200.706 120.620, 202.762 120.049 C 208.155 118.552, 230.692 118.798, 243.441 120.495 C 253.826 121.877, 258.572 121.852, 252.368 120.448 C 250.791 120.091, 247.925 119.420, 246 118.956 C 229.264 114.924, 197 116.250, 197 120.970 C 197 121.479, 192.982 121.625, 187.750 121.306 C 179.204 120.786, 178.295 120.524, 175.806 117.871 C 174.325 116.292, 172.868 115, 172.569 115 C 172.270 115, 167.632 113.848, 162.263 112.440 C 149.759 109.161, 133.815 107.010, 123 107.144 C 114.665 107.247, 114.800 107.284, 130 109.034 M 123 119.500 C 123 120.325, 123.675 121, 124.500 121 C 125.325 121, 126 120.325, 126 119.500 C 126 118.675, 125.325 118, 124.500 118 C 123.675 118, 123 118.675, 123 119.500 M 117.239 122.161 C 115.203 124.197, 115.818 126.889, 119.034 130.034 C 122.183 133.111, 124.158 134.101, 122.027 131.533 C 121.357 130.726, 120.285 128.008, 119.643 125.494 C 118.716 121.860, 118.223 121.177, 117.239 122.161 M 148.872 121.205 C 148.802 121.367, 148.643 122.431, 148.518 123.569 C 148.393 124.707, 147.989 127.243, 147.622 129.203 C 146.980 132.625, 147.085 132.793, 150.245 133.386 C 152.055 133.726, 155.222 134.907, 157.282 136.011 L 161.028 138.019 164.206 133.509 C 165.955 131.029, 167.748 129, 168.193 129 C 168.637 129, 169.046 131.363, 169.102 134.250 C 169.198 139.162, 169.257 139.280, 170.012 136.076 C 171.455 129.951, 168.897 126.624, 160.484 123.684 C 156.346 122.238, 149.095 120.690, 148.872 121.205 M 145.232 125 C 145.232 126.925, 145.438 127.713, 145.689 126.750 C 145.941 125.787, 145.941 124.213, 145.689 123.250 C 145.438 122.287, 145.232 123.075, 145.232 125 M 217.843 133.522 C 217.556 138.136, 217.706 138.762, 218.750 137.331 C 220.184 135.365, 220.455 128, 219.093 128 C 218.593 128, 218.031 130.485, 217.843 133.522 M 49.627 138.418 C 42.514 145.868, 38.567 151.764, 41.427 150.666 C 42.382 150.300, 44.075 150, 45.188 150 C 46.333 150, 50.319 147.009, 54.357 143.123 C 58.285 139.340, 62.962 135.504, 64.750 134.597 C 66.537 133.690, 68 132.735, 68 132.474 C 68 132.213, 65.245 132, 61.877 132 L 55.755 132 49.627 138.418 M 86 132.775 C 86 133.329, 87.033 134.043, 88.296 134.360 C 89.559 134.676, 92.372 136.507, 94.546 138.426 L 98.500 141.917 90 141.974 C 78.380 142.052, 77.075 143.214, 85.648 145.849 C 89.417 147.008, 94.075 148.939, 96 150.141 L 99.500 152.327 92.495 153.527 C 85.870 154.662, 75.281 158.615, 76.256 159.589 C 76.504 159.837, 80.035 160.691, 84.103 161.486 C 93.905 163.402, 98.212 164.725, 99.047 166.076 C 99.549 166.889, 101.799 166.855, 107.400 165.952 C 116.349 164.508, 144.103 165.176, 148 166.929 C 150.307 167.966, 150.229 168.010, 147 167.497 C 136.181 165.779, 119.012 165.781, 107.623 167.503 C 97.104 169.093, 95.166 169.710, 90.146 173.067 C 87.041 175.144, 82.338 179.352, 79.696 182.417 L 74.893 187.991 81.791 194.745 C 96.661 209.304, 118.533 217.941, 144.973 219.694 L 153.500 220.260 150.384 216.880 C 147.373 213.614, 144.996 208.409, 145.004 205.101 C 145.006 204.155, 145.776 204.760, 146.885 206.580 C 150.827 213.043, 160.955 219.017, 167.928 218.990 C 172.769 218.972, 180.428 214.460, 185.919 208.391 L 191.251 202.500 190.687 206.260 C 190.376 208.327, 189.128 211.416, 187.911 213.124 L 185.700 216.230 188.100 215.512 C 189.420 215.118, 194.263 212.816, 198.863 210.397 C 203.462 207.979, 207.430 206, 207.680 206 C 207.930 206, 207.829 206.964, 207.455 208.143 C 206.854 210.036, 207.330 209.891, 211.540 206.893 C 217.008 203, 222.524 195.053, 223.548 189.594 C 224.292 185.627, 225.607 185.832, 226.165 190 C 226.661 193.704, 228.421 192.637, 229.038 188.257 C 229.942 181.845, 228.973 180.032, 222.987 176.934 C 217.257 173.969, 217.580 172.962, 223.471 175.424 C 226.419 176.655, 226.805 176.655, 226.332 175.424 C 225.684 173.734, 226.436 173.628, 229.066 175.035 C 231.322 176.243, 231.403 175.978, 229.829 172.523 C 228.559 169.736, 227.658 169.424, 218.250 168.509 L 212 167.901 211.990 172.700 C 211.971 182.010, 205.198 191.937, 197.774 193.536 C 193.150 194.532, 189 196.818, 189 198.371 C 189 199.096, 188.118 200.488, 187.040 201.464 C 184.015 204.201, 179.043 202.796, 174.722 197.983 C 172.755 195.792, 170.389 194, 169.463 194 C 163.294 194, 148.509 181.796, 147.289 175.696 C 146.752 173.010, 146.490 172.873, 143.108 173.505 C 137.238 174.603, 127.936 178.079, 121.293 181.657 C 114.277 185.435, 112.311 185.913, 116 182.942 C 121.823 178.253, 135.078 173.130, 145.117 171.688 C 148.579 171.191, 148.782 171.329, 149.853 174.904 C 151.938 181.862, 162.038 189.891, 171.311 191.962 C 175.283 192.848, 176.724 192.750, 179.573 191.398 C 183.192 189.681, 188 184.691, 188 182.652 C 188 181.105, 184.424 177.542, 180 174.683 C 177.347 172.968, 176.500 171.730, 176.500 169.569 C 176.500 165.423, 178.949 164.261, 184.207 165.912 C 188.904 167.386, 193.718 167.574, 198.759 166.478 C 200.850 166.024, 202.553 166.214, 203.509 167.008 C 205.323 168.513, 205.463 172.539, 203.750 173.952 C 203.063 174.520, 200.209 176.741, 197.409 178.889 C 194.610 181.037, 191.366 184.410, 190.201 186.384 C 188.139 189.878, 188.133 190.001, 189.976 190.987 C 201.223 197.007, 216.174 173.762, 206.720 164.954 C 205.517 163.833, 201.429 161.973, 197.636 160.821 C 187.897 157.863, 172.882 158.578, 164.839 162.383 C 160.840 164.275, 157.810 164.972, 153.904 164.900 C 149.559 164.820, 148.990 164.634, 151 163.948 C 152.691 163.371, 151.721 163.265, 148 163.620 C 141.790 164.211, 122.177 162.472, 117.266 160.894 C 112.318 159.305, 107.592 152.990, 104.619 143.994 C 103.179 139.636, 102 135.379, 102 134.535 C 102 133.335, 100.747 132.997, 96.250 132.986 C 93.088 132.979, 89.487 132.701, 88.250 132.370 C 87.006 132.036, 86 132.217, 86 132.775 M 116.002 138.168 C 116.003 144.286, 118.247 149.440, 122.155 152.303 C 124.270 153.853, 127.996 154.524, 140.499 155.609 C 149.960 156.429, 156.846 156.615, 157.845 156.076 C 160.464 154.664, 164.801 149.755, 162.726 150.551 C 161.777 150.916, 161 150.790, 161 150.271 C 161 148.018, 153.434 139.904, 149.605 138.051 C 145.871 136.243, 144.212 136.092, 134.314 136.658 C 123.974 137.250, 122.963 137.140, 119.605 135.065 L 116 132.837 116.002 138.168 M 177.560 136.618 C 177.198 138.058, 177.096 139.429, 177.331 139.665 C 177.567 139.900, 178.039 138.980, 178.381 137.620 C 178.722 136.259, 179.789 134.941, 180.751 134.689 C 182.131 134.329, 182.048 134.208, 180.358 134.116 C 178.835 134.033, 178.027 134.755, 177.560 136.618 M 192.731 137.080 C 193.085 138.432, 193.538 138.886, 193.788 138.137 C 194.028 137.415, 193.750 136.350, 193.168 135.768 C 192.426 135.026, 192.296 135.417, 192.731 137.080 M 238.175 140.199 C 233.597 141.290, 230.053 142.387, 230.301 142.635 C 230.812 143.146, 250.067 139.266, 250.835 138.498 C 251.819 137.514, 246.350 138.249, 238.175 140.199 M 166.166 144.595 C 164.950 147.098, 164.361 148.895, 164.856 148.589 C 165.987 147.890, 169.311 140.977, 168.774 140.441 C 168.556 140.222, 167.382 142.092, 166.166 144.595 M 173.695 147.513 C 172.781 149.431, 172.239 151, 172.490 151 C 173.175 151, 176.210 144.877, 175.753 144.420 C 175.536 144.203, 174.610 145.594, 173.695 147.513 M 205.750 144.689 C 203.440 145.293, 203.547 146.486, 206.482 152.789 C 209.397 159.050, 211.967 160.416, 222.750 161.436 C 230.014 162.122, 231.502 161.492, 228.500 159 C 226.466 157.312, 226.545 154.888, 228.609 155.680 C 229.834 156.150, 229.641 155.369, 227.796 152.399 C 223.720 145.837, 214.156 142.493, 205.750 144.689 M 46.278 155.250 C 42.582 161.421, 36.505 176.002, 35.546 181 L 34.875 184.500 37.273 180.437 C 42.698 171.248, 48.725 163.122, 54.845 156.750 L 61.328 150 55.375 150 L 49.423 150 46.278 155.250 M 165.924 158.750 L 163.500 161.500 166.250 159.076 C 167.762 157.742, 169 156.505, 169 156.326 C 169 155.541, 168.190 156.180, 165.924 158.750 M 129.250 161.689 C 130.213 161.941, 131.787 161.941, 132.750 161.689 C 133.713 161.438, 132.925 161.232, 131 161.232 C 129.075 161.232, 128.287 161.438, 129.250 161.689 M 139.813 162.683 C 140.534 162.972, 141.397 162.936, 141.729 162.604 C 142.061 162.272, 141.471 162.036, 140.417 162.079 C 139.252 162.127, 139.015 162.364, 139.813 162.683 M 47.651 183.777 C 45.561 184.238, 45.618 184.726, 49.017 195.500 C 50.624 200.592, 51.400 206.260, 51.863 216.297 L 52.500 230.095 55.679 224.297 C 59.396 217.520, 63.444 202.904, 62.569 199.419 C 62.235 198.089, 60.190 195.882, 58.023 194.515 C 55.111 192.676, 53.810 191.010, 53.032 188.117 C 51.933 184.039, 50.759 183.092, 47.651 183.777 M 313 200 L 313 205 324.788 205 C 335.029 205, 337.160 205.295, 341.023 207.250 C 346.653 210.098, 349.005 215.160, 346.975 220.059 C 344.787 225.343, 341.957 226.400, 327.048 227.500 L 313.500 228.500 313.182 231.815 C 312.611 237.764, 313.874 238.275, 327.965 237.804 C 342.366 237.322, 347.457 235.661, 352.644 229.753 C 356.912 224.892, 358.363 220.058, 357.537 213.450 C 356.974 208.946, 356.127 207.245, 352.353 203.048 C 346.372 196.395, 341.685 195, 325.318 195 L 313 195 313 200 M 372.185 195.989 C 364.209 197.877, 361.540 204.173, 362.212 219.519 C 362.731 231.360, 364.071 234.098, 370.557 236.575 C 376.522 238.853, 396.439 238.253, 400.372 235.676 C 405.733 232.163, 406.500 229.687, 406.500 215.880 C 406.500 203.712, 406.393 203.053, 404 200.456 C 399.991 196.104, 396.093 194.989, 385.282 195.102 C 379.902 195.159, 374.008 195.558, 372.185 195.989 M 410 196.094 C 410 197.044, 415.479 207.111, 428.170 229.479 C 432.404 236.941, 435.383 238.884, 439.540 236.892 C 441.149 236.121, 443.373 234.047, 444.483 232.283 C 445.592 230.520, 446.725 229.077, 447 229.076 C 447.275 229.076, 448.750 230.883, 450.279 233.092 C 452.918 236.905, 453.288 237.092, 457.638 236.804 C 461.713 236.534, 462.430 236.113, 464.124 233 C 465.171 231.075, 470.072 222.133, 475.014 213.130 C 479.956 204.126, 484 196.341, 484 195.830 C 484 195.319, 481.413 195.035, 478.250 195.200 L 472.500 195.500 465.210 210.250 C 461.201 218.363, 457.572 225, 457.146 225 C 456.719 225, 455.613 223.411, 454.687 221.469 C 453.030 217.995, 453.051 217.842, 455.986 212.028 C 457.627 208.777, 460.312 204.001, 461.953 201.413 C 463.594 198.825, 464.700 196.323, 464.410 195.854 C 464.119 195.384, 461.429 195, 458.430 195 L 452.978 195 450.281 200.500 C 448.797 203.525, 447.340 205.999, 447.042 205.998 C 446.744 205.996, 445.207 203.521, 443.627 200.498 L 440.755 195 435.377 195 C 432.350 195, 430 195.451, 430 196.031 C 430 196.599, 432.535 201.853, 435.633 207.707 L 441.266 218.351 439.475 221.676 C 438.491 223.504, 437.415 225, 437.084 225 C 436.754 225, 433.112 218.254, 428.992 210.008 L 421.500 195.017 415.750 195.008 C 412.250 195.003, 410 195.428, 410 196.094 M 489.230 216.250 L 489.500 237.500 493.398 237.819 C 495.841 238.019, 497.609 237.646, 498.133 236.819 C 498.593 236.094, 498.976 228.863, 498.985 220.750 C 498.998 208.372, 499.239 206, 500.487 206 C 502.282 206, 503.822 209.623, 507.054 221.452 C 510.709 234.831, 514.608 237.955, 527.691 237.989 C 529.996 237.995, 532.169 237.535, 532.521 236.967 C 532.872 236.398, 532.835 226.723, 532.439 215.467 L 531.718 195 527.359 195 L 523 195 523 211.622 L 523 228.244 520.873 226.831 C 518.489 225.249, 517.242 222.272, 513.876 210.125 C 510.470 197.837, 507.312 195.292, 495.230 195.100 L 488.960 195 489.230 216.250 M 539.185 212.423 L 539.500 229.967 542.632 233.096 C 546.664 237.124, 550.841 237.902, 568.750 237.956 L 583 238 583 233.070 L 583 228.141 567.533 227.820 C 547.540 227.406, 548.658 228.443, 548 209.718 L 547.500 195.500 543.185 195.189 L 538.870 194.879 539.185 212.423 M 596.415 196.371 C 590.067 199.239, 589.218 201.549, 589.059 216.380 C 588.920 229.381, 588.987 229.831, 591.491 232.807 C 595.351 237.395, 599.575 238.360, 613.068 237.738 C 631.129 236.906, 633 234.913, 633 216.500 C 633 197.697, 630.995 195.668, 612 195.251 C 602.952 195.053, 598.648 195.362, 596.415 196.371 M 653.214 196.789 C 642.396 201.106, 638 209.693, 638 226.508 C 638 237.826, 638.097 237.992, 644.250 237.240 L 648 236.781 648 226.041 C 648 215.717, 648.115 215.141, 650.971 211.199 C 654.477 206.359, 658.885 204.704, 667 205.178 L 672.500 205.500 672.784 216.223 C 673.107 228.459, 673.696 227.737, 663 228.241 L 657.500 228.500 657.500 233 L 657.500 237.500 670 237.500 L 682.500 237.500 682.500 216.500 L 682.500 195.500 670 195.289 C 660.172 195.124, 656.584 195.445, 653.214 196.789 M 688 200 L 688 205 699.532 205 C 712.329 205, 716.355 206.094, 719.832 210.514 C 723.603 215.307, 722.251 222.239, 716.932 225.381 C 713.538 227.386, 709.854 227.864, 697.195 227.942 L 687.890 228 688.195 232.750 L 688.500 237.500 701.500 237.500 C 716.935 237.500, 718.812 237.068, 724.090 232.300 C 729.672 227.257, 731.344 223.617, 731.361 216.470 C 731.378 209.176, 728.479 203.297, 722.987 199.491 C 717.579 195.743, 713.818 195, 700.257 195 L 688 195 688 200 M 737 208.500 L 737 222 754.500 222 L 772 222 772 217 L 772 212 759.500 212 L 747 212 747 208.500 L 747 205 763 205 L 779 205 779 200 L 779 195 758 195 L 737 195 737 208.500 M 784.750 195.563 C 783.719 196.622, 783.828 235.180, 784.867 236.819 C 785.391 237.646, 787.159 238.019, 789.602 237.819 L 793.500 237.500 794 221.500 L 794.500 205.500 803.866 205.211 C 816.503 204.821, 820.475 207.506, 816.965 214.066 C 816.105 215.672, 814.833 216, 809.465 216 L 803 216 803 220.964 C 803 225.613, 803.357 226.311, 808.627 231.964 C 814.117 237.852, 814.383 238, 819.461 238 C 822.324 238, 824.956 237.711, 825.309 237.358 C 825.662 237.004, 823.760 234.186, 821.082 231.095 L 816.213 225.474 820.007 223.854 C 824.891 221.768, 826.999 218.456, 827.660 211.827 C 828.107 207.346, 827.818 205.952, 825.842 203.054 C 821.409 196.550, 818.450 195.611, 801.035 195.179 C 792.491 194.967, 785.163 195.140, 784.750 195.563 M 176 196.465 C 176 196.720, 177.012 197.469, 178.250 198.129 C 180.290 199.216, 180.372 199.172, 179.128 197.664 C 177.850 196.115, 176 195.406, 176 196.465 M 183 198.441 C 183 199.298, 183.450 200, 184 200 C 184.550 200, 185 199.577, 185 199.059 C 185 198.541, 184.550 197.840, 184 197.500 C 183.450 197.160, 183 197.584, 183 198.441 M 377.009 205.741 C 375.089 205.973, 373.183 206.689, 372.774 207.331 C 372.365 207.974, 372.024 212.422, 372.015 217.215 C 372.001 225.151, 372.195 226.034, 374.177 227.095 C 376.780 228.488, 393.704 227.490, 395.710 225.826 C 397.422 224.405, 397.498 207.898, 395.800 206.200 C 394.635 205.035, 384.840 204.796, 377.009 205.741 M 599.607 206.582 C 598.592 209.226, 598.929 225.838, 600.011 226.507 C 600.567 226.850, 605.046 227.392, 609.965 227.711 C 617.315 228.187, 619.362 227.993, 621.454 226.622 C 623.844 225.056, 624 224.445, 624 216.632 C 624 205.414, 623.511 205, 610.278 205 C 602.023 205, 600.105 205.284, 599.607 206.582 M 138.366 224.706 C 136.642 224.928, 133.421 226.660, 131.207 228.555 C 128.933 230.501, 126.088 232, 124.668 232 C 121.530 232, 116.420 236.191, 115.607 239.430 C 115.271 240.770, 114.108 242.148, 113.024 242.492 C 106.725 244.492, 104.953 254.107, 109.961 259.115 C 112.867 262.021, 113.093 262.071, 122.132 261.788 L 131.342 261.500 131.588 257.111 C 131.723 254.696, 132.433 252.341, 133.167 251.876 C 135.218 250.575, 147.428 250.828, 148.800 252.200 C 149.460 252.860, 150 255.335, 150 257.700 L 150 262 157.250 261.996 C 162.676 261.993, 165.306 261.501, 167.701 260.040 C 178.817 253.263, 174.049 235, 161.165 235 C 159.064 235, 157.721 234.219, 156.440 232.250 C 152.594 226.341, 146.249 223.693, 138.366 224.706 M 737.306 228.645 C 737.065 229.274, 737.009 231.524, 737.183 233.645 L 737.500 237.500 758.250 237.770 L 779 238.041 779 233.020 L 779 228 771.750 227.798 C 751.157 227.223, 737.726 227.553, 737.306 228.645 M 136 261 C 136 266.733, 135.889 267, 133.500 267 C 132.125 267, 131 267.409, 131 267.908 C 131 269.183, 139.922 280, 140.974 280 C 141.933 280, 150.981 268.937, 150.993 267.750 C 150.997 267.337, 149.875 267, 148.500 267 C 146.111 267, 146 266.733, 146 261 L 146 255 141 255 L 136 255 136 261" fill="#ECFEFF" fill-rule="evenodd"/>
</svg>
